<?xml version="1.0" encoding="iso-8859-1"?>
<!-- Uploaded to: SVG Repo, www.svgrepo.com, Generator: SVG Repo Mixer Tools -->
<!DOCTYPE svg PUBLIC "-//W3C//DTD SVG 1.1//EN" "http://www.w3.org/Graphics/SVG/1.1/DTD/svg11.dtd">
<svg fill="#000000" height="800px" width="800px" version="1.1" id="Capa_1" xmlns="http://www.w3.org/2000/svg" xmlns:xlink="http://www.w3.org/1999/xlink" 
	 viewBox="0 0 483.975 483.975" xml:space="preserve">
<g>
	<path d="M241.987,130.333c-61.567,0-111.655,50.088-111.655,111.655s50.088,111.655,111.655,111.655
		c61.566,0,111.654-50.088,111.654-111.655S303.554,130.333,241.987,130.333z M230.029,255.502h-0.597
		c-1.208,0-2.191-0.983-2.191-2.192c0-1.208,0.983-2.191,2.191-2.191h0.597c3.59,0,6.5-2.91,6.5-6.5v-28.864
		c1.8,0.371,3.626,0.572,5.456,0.572c1.831,0,3.659-0.203,5.46-0.574v28.865c0,3.59,2.91,6.5,6.5,6.5h0.597
		c1.208,0,2.191,0.983,2.191,2.191c0,1.208-0.983,2.192-2.191,2.192h-0.597c-3.59,0-6.5,2.91-6.5,6.5v2.85
		c0,3.01-2.448,5.458-5.458,5.458s-5.458-2.448-5.458-5.458v-2.85C236.529,258.412,233.619,255.502,230.029,255.502z
		 M159.781,187.509c4.151-0.656,8.189-1.88,12.037-3.67c17.67-8.208,38.51-6.336,54.435,4.877c0.044,0.033,0.09,0.066,0.136,0.099
		c4.666,3.311,10.132,4.965,15.598,4.965c5.469,0,10.938-1.658,15.6-4.971c9.283-6.572,20.201-10.045,31.574-10.045
		c8.008,0,15.743,1.707,22.981,5.07c3.846,1.794,7.889,3.02,12.052,3.676c2.149,3.233,4.114,6.598,5.877,10.082
		c-4.292-0.177-8.555-1.185-12.44-2.991c-21.933-10.188-47.821-7.83-67.563,6.156c-4.832,3.43-11.327,3.431-16.161,0.003
		c-0.012-0.008-0.023-0.016-0.035-0.025c-19.73-13.969-45.603-16.321-67.534-6.134c-3.949,1.836-8.128,2.837-12.439,3.001
		C155.662,194.114,157.629,190.745,159.781,187.509z M171.815,206.391c5.035-2.339,10.328-3.857,15.691-4.576
		c-1.713,1.927-2.763,4.457-2.763,7.238c0,3.913,2.067,7.334,5.161,9.26c-7.926-0.416-15.811-3.12-22.613-8.256l-1.73-1.307
		C167.685,208.117,169.774,207.34,171.815,206.391z M206.564,209.053c0-2.63-0.931-5.042-2.481-6.926
		c5.49,0.943,10.849,2.721,15.87,5.321c-4.84,4.484-10.549,7.618-16.612,9.345C205.33,214.817,206.564,212.08,206.564,209.053z
		 M279.891,202.129c-1.549,1.884-2.48,4.295-2.48,6.924c0,3.026,1.233,5.763,3.223,7.739c-6.062-1.728-11.771-4.862-16.61-9.345
		C269.044,204.848,274.402,203.072,279.891,202.129z M299.231,209.053c0-2.78-1.049-5.31-2.761-7.237
		c5.361,0.719,10.651,2.236,15.683,4.573c2.022,0.94,4.125,1.718,6.272,2.352l-1.74,1.314c-6.802,5.136-14.687,7.842-22.613,8.257
		C297.164,216.387,299.231,212.966,299.231,209.053z M307.496,168.29c-5.933-1.676-12.066-2.527-18.335-2.527
		c-14.079,0-27.594,4.3-39.096,12.442c-4.791,3.405-11.219,3.437-16.039,0.087c-0.042-0.031-0.085-0.062-0.128-0.093
		c-16.77-11.884-37.982-15.365-57.441-9.889c17.438-15.527,40.4-24.978,65.531-24.978
		C267.107,143.333,290.06,152.775,307.496,168.29z M241.987,340.642c-54.398,0-98.655-44.256-98.655-98.655
		c0-10.518,1.661-20.653,4.723-30.166l11.403,8.61c19.313,14.584,45.262,14.342,64.071,0.864v2.194
		c-14.088,16.759-38.743,19.564-56.237,6.355c-2.865-2.163-6.939-1.594-9.104,1.271c-2.163,2.865-1.594,6.941,1.271,9.104
		c9.765,7.373,21.224,10.956,32.6,10.956c8.45,0,16.849-1.994,24.477-5.865c-1.448,2.326-2.293,5.065-2.293,8
		c0,6.35,3.917,11.803,9.461,14.07c1.235,8.986,8.965,15.93,18.285,15.93s17.05-6.944,18.285-15.93
		c5.544-2.267,9.461-7.719,9.461-14.07c0-2.936-0.845-5.674-2.293-8c7.628,3.871,16.026,5.865,24.478,5.865
		c11.374,0,22.836-3.584,32.6-10.957c2.865-2.163,3.434-6.239,1.271-9.104c-2.164-2.865-6.239-3.433-9.104-1.271
		c-17.496,13.211-42.151,10.404-56.238-6.355v-2.193c18.809,13.478,44.757,13.721,64.072-0.864l11.401-8.609
		c3.062,9.513,4.723,19.648,4.723,30.165C340.642,296.386,296.386,340.642,241.987,340.642z"/>
	<path d="M479.368,235.769l-100.242-30.528l71.548-76.559c1.953-2.09,2.311-5.211,0.88-7.688c-1.43-2.477-4.315-3.729-7.098-3.082
		L342.38,141.595l23.683-102.076c0.646-2.786-0.604-5.668-3.082-7.098c-2.478-1.43-5.598-1.073-7.688,0.88l-76.559,71.548
		L248.205,4.607C247.372,1.87,244.848,0,241.987,0s-5.385,1.87-6.218,4.606L205.24,104.849L128.682,33.3
		c-2.088-1.952-5.21-2.311-7.688-0.88c-2.478,1.43-3.729,4.312-3.082,7.098l23.684,102.076L39.518,117.912
		c-2.784-0.647-5.668,0.605-7.098,3.082c-1.431,2.477-1.073,5.598,0.88,7.688l71.548,76.559L4.606,235.769
		C1.87,236.602,0,239.127,0,241.987s1.87,5.385,4.606,6.218l100.241,30.528L33.3,355.293c-1.953,2.09-2.311,5.211-0.88,7.688
		c1.431,2.477,4.313,3.729,7.098,3.082l102.077-23.683l-23.684,102.076c-0.646,2.786,0.604,5.668,3.082,7.098
		c2.478,1.43,5.598,1.073,7.688-0.88l76.559-71.548l30.529,100.242c0.833,2.736,3.357,4.606,6.218,4.606s5.385-1.87,6.218-4.606
		l30.528-100.242l76.559,71.548c2.09,1.952,5.209,2.312,7.688,0.88c2.478-1.43,3.729-4.312,3.082-7.098L342.38,342.38
		l102.076,23.683c2.782,0.646,5.667-0.605,7.098-3.082c1.431-2.477,1.073-5.598-0.88-7.688l-71.548-76.559l100.242-30.528
		c2.736-0.833,4.606-3.358,4.606-6.218S482.104,236.602,479.368,235.769z M426.603,135.399l-62.179,66.534
		c-2.115-6.448-4.718-12.677-7.78-18.635l30.182-17.425c3.109-1.795,4.174-5.77,2.379-8.879c-1.795-3.109-5.77-4.174-8.879-2.379
		l-30.205,17.438c-3.682-5.674-7.799-11.041-12.302-16.055L426.603,135.399z M241.987,357.807
		c-63.863,0-115.82-51.957-115.82-115.82c0-63.863,51.957-115.82,115.82-115.82s115.819,51.957,115.819,115.82
		C357.807,305.851,305.851,357.807,241.987,357.807z M327.976,146.156c-5.013-4.502-10.378-8.618-16.051-12.3l17.437-30.203
		c1.795-3.109,0.729-7.084-2.379-8.879c-3.106-1.794-7.085-0.731-8.879,2.379l-17.424,30.18c-5.959-3.063-12.189-5.667-18.639-7.783
		l66.534-62.179L327.976,146.156z M241.987,28.811l26.528,87.109c-6.51-1.368-13.198-2.248-20.026-2.589V78.5
		c0-3.59-2.91-6.5-6.5-6.5s-6.5,2.91-6.5,6.5v34.831c-6.83,0.341-13.519,1.221-20.031,2.589L241.987,28.811z M135.398,57.371
		l66.534,62.179c-6.448,2.115-12.677,4.718-18.635,7.78l-17.424-30.178c-1.795-3.109-5.771-4.174-8.879-2.379
		c-3.109,1.795-4.174,5.77-2.379,8.879l17.437,30.2c-5.674,3.682-11.041,7.799-16.055,12.302L135.398,57.371z M57.371,135.399
		l88.785,20.599c-4.503,5.013-8.619,10.379-12.301,16.053l-30.2-17.436c-3.106-1.794-7.083-0.73-8.879,2.379
		c-1.795,3.109-0.73,7.084,2.379,8.879l30.177,17.423c-3.062,5.958-5.666,12.188-7.781,18.637L57.371,135.399z M28.812,241.987
		l87.108-26.528c-1.369,6.511-2.248,13.2-2.589,20.029H78.501c-3.59,0-6.5,2.91-6.5,6.5s2.91,6.5,6.5,6.5h34.83
		c0.341,6.829,1.221,13.517,2.589,20.028L28.812,241.987z M57.371,348.575l62.179-66.534c2.115,6.45,4.719,12.68,7.782,18.639
		l-30.178,17.423c-3.109,1.795-4.174,5.77-2.379,8.879c1.204,2.085,3.389,3.251,5.635,3.251c1.103,0,2.221-0.281,3.244-0.872
		l30.201-17.437c3.682,5.673,7.798,11.039,12.3,16.051L57.371,348.575z M155.998,337.819c5.014,4.503,10.381,8.62,16.055,12.303
		l-17.438,30.202c-1.795,3.109-0.73,7.084,2.379,8.879c1.023,0.591,2.142,0.872,3.244,0.872c2.246,0,4.431-1.166,5.635-3.251
		l17.425-30.179c5.957,3.062,12.186,5.665,18.634,7.78l-66.534,62.179L155.998,337.819z M241.987,455.163l-26.529-87.109
		c6.512,1.369,13.201,2.248,20.031,2.589v34.833c0,3.59,2.91,6.5,6.5,6.5s6.5-2.91,6.5-6.5v-34.833
		c6.828-0.341,13.516-1.221,20.026-2.589L241.987,455.163z M348.575,426.603l-66.534-62.179c6.45-2.115,12.68-4.719,18.639-7.782
		l17.425,30.181c1.204,2.085,3.389,3.251,5.635,3.251c1.103,0,2.221-0.281,3.244-0.872c3.108-1.795,4.174-5.77,2.379-8.879
		l-17.438-30.204c5.673-3.682,11.039-7.798,16.052-12.301L348.575,426.603z M426.603,348.575l-88.784-20.599
		c4.503-5.013,8.619-10.38,12.302-16.054l30.206,17.439c1.023,0.591,2.142,0.872,3.244,0.872c2.246,0,4.431-1.166,5.635-3.251
		c1.795-3.109,0.73-7.084-2.379-8.879l-30.183-17.426c3.062-5.958,5.666-12.187,7.781-18.636L426.603,348.575z M368.054,268.516
		c1.368-6.511,2.248-13.199,2.589-20.028h34.835c3.59,0,6.5-2.91,6.5-6.5s-2.91-6.5-6.5-6.5h-34.835
		c-0.341-6.829-1.221-13.518-2.589-20.029l87.109,26.528L368.054,268.516z"/>
	<path d="M257.336,300.111l-6.743-2c-1.205-0.357-2.488-0.358-3.695,0l-4.903,1.453l-4.907-1.453c-1.205-0.357-2.486-0.357-3.691,0
		l-6.754,2c-3.442,1.019-5.406,4.636-4.387,8.078c0.837,2.826,3.425,4.656,6.229,4.656c0.611,0,1.232-0.087,1.849-0.269l4.908-1.453
		l4.908,1.453c1.205,0.357,2.487,0.357,3.692,0l4.901-1.453l4.896,1.452c3.442,1.02,7.059-0.942,8.08-4.383
		S260.777,301.132,257.336,300.111z"/>
	<path d="M246.887,313.911l-4.901,1.453l-4.896-1.452c-3.444-1.021-7.059,0.941-8.08,4.383c-1.021,3.442,0.941,7.059,4.383,8.08
		l6.743,2c0.604,0.179,1.226,0.268,1.849,0.268c0.622,0,1.244-0.089,1.847-0.268l6.749-2c3.442-1.02,5.405-4.637,4.386-8.079
		C253.945,314.854,250.328,312.891,246.887,313.911z"/>
	<path d="M229.928,295.598c3.38,1.207,7.101-0.554,8.308-3.935c1.208-3.381-0.555-7.1-3.935-8.307
		c-13.625-4.866-28.682,1.27-35.023,14.272c-0.291,0.597-0.782,0.804-1.143,0.873c-0.359,0.068-0.891,0.056-1.381-0.393
		c-2.647-2.427-6.758-2.247-9.184,0.398c-2.426,2.646-2.248,6.758,0.398,9.184c2.734,2.507,6.205,3.845,9.817,3.845
		c0.918,0,1.845-0.086,2.771-0.262c4.571-0.867,8.363-3.763,10.403-7.945C214.396,296.285,222.553,292.964,229.928,295.598z"/>
	<path d="M287.221,298.107c-0.49,0.449-1.021,0.461-1.381,0.393c-0.36-0.068-0.852-0.275-1.143-0.872
		c-6.342-13.002-21.397-19.139-35.023-14.272c-3.38,1.207-5.143,4.927-3.935,8.307c1.208,3.381,4.926,5.143,8.308,3.935
		c7.371-2.634,15.531,0.687,18.967,7.729c2.04,4.182,5.832,7.078,10.403,7.945c0.927,0.176,1.854,0.262,2.771,0.262
		c3.612,0,7.083-1.338,9.817-3.845c2.646-2.426,2.824-6.538,0.398-9.184C293.978,295.859,289.867,295.681,287.221,298.107z"/>
</g>
</svg>