<?xml version="1.0" encoding="iso-8859-1"?>
<!-- Uploaded to: SVG Repo, www.svgrepo.com, Generator: SVG Repo Mixer Tools -->
<svg height="800px" width="800px" version="1.1" id="Layer_1" xmlns="http://www.w3.org/2000/svg" xmlns:xlink="http://www.w3.org/1999/xlink" 
	 viewBox="0 0 511.999 511.999" xml:space="preserve">
<path style="fill:#D65A4D;" d="M184.201,131.228c0,43.955,19.577,84.302,52.225,115.918c9.986,9.67,28.777,9.67,38.762,0
	c32.648-31.617,52.225-71.963,52.225-115.918S307.836,46.926,275.188,15.31c-9.986-9.67-28.777-9.67-38.762,0
	C203.778,46.926,184.201,87.273,184.201,131.228z"/>
<path style="fill:#953A3C;" d="M316.914,76.633c-0.006-0.002-0.009-0.003-0.015-0.006c-2.496,1.214-4.931,2.507-7.299,3.876
	c-10.03,5.796-22.999,2.778-29.374-6.895c-4.729-7.175-10.691-13.765-17.666-19.591c-3.631-3.033-9.5-3.025-13.131,0.01
	c-7.082,5.917-13.118,12.621-17.878,19.926c-6.385,9.797-19.492,12.859-29.576,6.938c-2.409-1.414-4.888-2.749-7.433-4.003
	c-6.735,17.174-10.37,35.422-10.37,54.341c0,14.3,2.084,28.214,6.004,41.574c8.285,8.715,18.522,16.045,30.068,21.693
	c4.401,2.153,10.23,0.934,12.701-2.656c5.084-7.386,8.814-15.36,11.02-23.669c1.745,1.697,3.564,3.343,5.464,4.93
	c3.613,3.019,9.466,3.066,13.082,0.051c1.613-1.345,3.167-2.734,4.669-4.158c2.231,8.013,5.883,15.705,10.8,22.848
	c2.471,3.59,8.3,4.809,12.701,2.656c11.994-5.865,22.557-13.56,31.003-22.724c3.726-13.044,5.699-26.611,5.699-40.543
	C327.381,112.216,323.712,93.881,316.914,76.633z"/>
<path style="fill:#427451;" d="M339.017,170.579c-7.49,22.282-25.318,40.226-48.339,51.486c-4.401,2.153-10.23,0.934-12.701-2.656
	c-12.924-18.777-17.138-41.33-9.649-63.612s25.318-40.226,48.339-51.486c4.401-2.153,10.23-0.934,12.701,2.656
	C342.293,125.743,346.507,148.298,339.017,170.579z"/>
<path style="fill:#42A555;" d="M340.091,204.941c-25.124,11.777-53.78,14.75-80.213,10.081c-5.054-0.893-8.135-4.981-6.713-8.91
	c7.433-20.546,24.44-38.979,49.562-50.756c25.124-11.777,53.78-14.75,80.213-10.081c5.054,0.893,8.135,4.981,6.713,8.91
	C382.222,174.729,365.215,193.163,340.091,204.941z"/>
<path style="fill:#427451;" d="M171.903,170.579c7.49,22.282,25.318,40.226,48.339,51.486c4.401,2.153,10.23,0.934,12.701-2.656
	c12.924-18.777,17.138-41.33,9.649-63.612c-7.49-22.282-25.318-40.226-48.339-51.486c-4.401-2.153-10.23-0.934-12.701,2.656
	C168.627,125.743,164.413,148.298,171.903,170.579z"/>
<g>
	<path style="fill:#42A555;" d="M219.433,141.132c0,23.052,11.401,44.001,29.995,59.537c3.555,2.971,9.585,2.971,13.14,0
		c18.594-15.537,29.995-36.486,29.995-59.537s-11.401-44.001-29.995-59.537c-3.555-2.971-9.585-2.971-13.14,0
		C230.834,97.131,219.433,118.081,219.433,141.132z"/>
	<path style="fill:#42A555;" d="M170.829,204.941c25.124,11.777,53.78,14.75,80.213,10.081c5.054-0.893,8.135-4.981,6.713-8.91
		c-7.433-20.546-24.44-38.979-49.562-50.756c-25.123-11.777-53.78-14.75-80.213-10.081c-5.054,0.893-8.135,4.981-6.713,8.91
		C128.7,174.729,145.706,193.163,170.829,204.941z"/>
</g>
<path style="fill:#FFA61F;" d="M357.922,254.837L357.922,254.837c-20.467-18.394-35.225-43.211-39.805-69.064H193.745
	c-4.442,25.614-17.633,48.414-36.733,66.435c-26.093,22.734-42.284,54.381-42.284,89.386c0,69.202,63.248,125.301,141.27,125.301
	s141.27-56.099,141.27-125.301C397.268,307.919,382.288,277.351,357.922,254.837z"/>
<path style="fill:#FFDB6C;" d="M357.922,254.837L357.922,254.837c-20.467-18.394-35.225-43.211-39.805-69.064H193.745
	c-4.442,25.614-17.633,48.414-36.733,66.435c-26.093,22.734-42.284,54.381-42.284,89.386c0,69.202,63.248,125.301,141.27,125.301
	s141.27-56.099,141.27-125.301C397.268,307.919,382.288,277.351,357.922,254.837z"/>
<g>
	<path style="fill:#FFB04C;" d="M147.045,394.376c-0.025-7.169,3.171-60.39,34.215-100.344
		c33.856-43.572,96.564-65.874,161.383-55.476l0,0c-12.422-15.657-21.186-33.938-24.526-52.783H193.745
		c-4.442,25.614-17.633,48.414-36.733,66.435c-26.093,22.734-42.284,54.381-42.284,89.386c0,32.511,13.962,62.129,36.856,84.398
		c-1.581-5.397-2.77-10.935-3.532-16.588C148.052,409.403,147.071,402.136,147.045,394.376z"/>
	<path style="fill:#FFB04C;" d="M362.617,503.923H149.38v-9.081c0-22.925,18.584-41.509,41.509-41.509h130.219
		c22.925,0,41.509,18.584,41.509,41.509V503.923z"/>
</g>
<path style="fill:#FA6657;" d="M341.072,213.127h-165.94c-7.626,0-13.808-6.182-13.808-13.808l0,0
	c0-7.626,6.182-13.808,13.808-13.808h165.94c7.626,0,13.808,6.182,13.808,13.808l0,0
	C354.88,206.946,348.698,213.127,341.072,213.127z"/>
<g>
	<circle style="fill:#634E9B;" cx="150.042" cy="339.667" r="35.317"/>
	<circle style="fill:#634E9B;" cx="220.686" cy="339.667" r="35.317"/>
	<circle style="fill:#634E9B;" cx="291.318" cy="339.667" r="35.317"/>
	<circle style="fill:#634E9B;" cx="361.951" cy="339.667" r="35.317"/>
</g>
<g>
	<circle style="fill:#4C3A7A;" cx="150.042" cy="339.667" r="17.156"/>
	<circle style="fill:#4C3A7A;" cx="220.686" cy="339.667" r="17.156"/>
	<circle style="fill:#4C3A7A;" cx="291.318" cy="339.667" r="17.156"/>
	<circle style="fill:#4C3A7A;" cx="361.951" cy="339.667" r="17.156"/>
</g>
<path d="M342.812,450.267c39.04-24.781,62.535-64.777,62.535-108.506c0-34.716-14.896-67.598-41.942-92.589
	c-0.027-0.025-0.055-0.051-0.083-0.075c-9.132-8.207-17.007-17.699-23.212-27.89h0.962c11.524,0,20.973-8.958,21.805-20.274
	c16.342-11.764,28.187-26.898,34.374-44.001c1.392-3.847,1.001-8.11-1.074-11.696c-2.386-4.126-6.699-7.012-11.831-7.917
	c-11.5-2.032-23.166-2.645-34.661-1.927c-1.992-11.532-6.64-22.804-13.661-33.006c-4.775-6.937-14.836-9.279-22.906-5.333
	c-7.004,3.426-13.497,7.408-19.425,11.879c-5.545-12.397-14.306-23.814-25.942-33.538c-6.589-5.506-16.912-5.506-23.5,0
	c-11.828,9.883-20.689,21.515-26.217,34.149c-6.14-4.72-12.901-8.906-20.228-12.49c-0.372-0.182-0.752-0.336-1.131-0.491
	c7.082-27.508,22.646-53.438,45.373-75.449c6.818-6.599,20.707-6.6,27.522,0c13.868,13.43,25.091,28.305,33.36,44.211
	c2.057,3.96,6.935,5.499,10.895,3.443c3.959-2.059,5.5-6.936,3.443-10.895c-9.072-17.453-21.338-33.725-36.457-48.367
	c-13.084-12.671-36.917-12.672-50.003,0c-26.323,25.491-43.899,55.949-51.039,88.325c-1.908,1.168-3.584,2.689-4.868,4.556
	c-7.021,10.201-11.669,21.474-13.661,33.006c-11.495-0.717-23.16-0.104-34.661,1.927c-5.133,0.907-9.446,3.793-11.832,7.917
	c-2.075,3.586-2.466,7.85-1.074,11.696c2.64,7.296,6.361,14.323,11.06,20.883c1.578,2.203,4.058,3.376,6.575,3.375
	c1.629,0,3.273-0.491,4.698-1.511c3.627-2.598,4.462-7.645,1.864-11.273c-3.452-4.821-6.25-9.926-8.332-15.203
	c25.827-4.533,52.539-1.173,75.231,9.466c4.143,1.942,8.105,4.127,11.837,6.487c1.074,2.803,2.314,5.563,3.708,8.275h-45.176
	c-12.069,0-21.887,9.819-21.887,21.887c0,11.031,8.209,20.156,18.835,21.649c-5.561,9.288-12.513,17.969-20.5,25.524
	c-28.977,25.304-44.931,59.117-44.931,95.235c0,43.73,23.501,83.743,62.546,108.534c-16.5,8.062-27.895,25.014-27.895,44.58v9.081
	c0,4.462,3.617,8.079,8.079,8.079h213.238c4.462,0,8.079-3.617,8.079-8.079v-9.081C370.697,475.28,359.306,458.331,342.812,450.267z
	 M381.388,153.205c-4.698,11.919-12.902,22.69-23.986,31.592c-4.012-4.506-9.836-7.365-16.329-7.365H292.11
	c1.55-3.061,2.892-6.195,4.021-9.401c3.193-1.928,6.549-3.733,10.026-5.361C328.849,152.033,355.561,148.674,381.388,153.205z
	 M320.216,111.568c0.888-0.434,2.149-0.214,2.565,0.079c5.484,7.995,9.156,16.744,10.823,25.652
	c-11.546,2.033-22.734,5.464-33.205,10.254c0.158-2.118,0.243-4.256,0.243-6.42c0-5.332-0.548-10.602-1.618-15.767
	C305.238,120.057,312.34,115.42,320.216,111.568z M211.622,148.04c-10.783-5.054-22.357-8.639-34.306-10.742
	c1.666-8.907,5.339-17.657,10.823-25.652c0.1-0.071,0.251-0.137,0.433-0.192c0.12-0.027,0.24-0.05,0.359-0.082
	c0.544-0.092,1.228-0.072,1.774,0.194c8.276,4.048,15.688,8.952,22.114,14.594c-0.964,4.911-1.464,9.912-1.464,14.971
	c0,2.32,0.112,4.632,0.321,6.934C211.657,148.059,211.639,148.049,211.622,148.04z M227.512,141.132
	c0-4.858,0.587-9.665,1.72-14.369c0.337-0.762,0.552-1.563,0.642-2.376c3.834-13.56,12.276-26.183,24.735-36.593
	c0.558-0.468,2.22-0.469,2.779,0c17.473,14.6,27.097,33.543,27.097,53.338c0,13.252-3.74,25.441-11.101,36.301h-34.322
	C231.501,166.263,227.512,153.794,227.512,141.132z M169.404,199.32c0-3.158,2.57-5.729,5.729-5.729h59.717
	c0.018,0,0.038,0.003,0.056,0.003c0.013,0,0.027-0.003,0.04-0.003h106.126c3.158,0,5.729,2.57,5.729,5.729
	c0,3.159-2.57,5.729-5.729,5.729h-165.94C171.974,205.049,169.404,202.479,169.404,199.32z M122.807,341.728
	c0-31.426,14.032-60.96,39.512-83.16c0.081-0.07,0.159-0.142,0.237-0.215c11.375-10.732,20.925-23.5,27.834-37.145h131.216
	c7.549,14.714,18.139,28.416,30.874,39.87c23.674,21.893,36.709,50.544,36.709,80.684c0,43.591-27.094,83.089-70.819,103.494
	H193.639C149.91,424.842,122.807,385.322,122.807,341.728z M354.538,495.844H157.459v-1.002c0-18.433,14.997-33.43,33.43-33.43
	h128.567c0.211,0.017,0.42,0.045,0.633,0.045c0.281,0,0.563-0.015,0.846-0.045h0.173c18.433,0,33.43,14.997,33.43,33.43
	L354.538,495.844L354.538,495.844z"/>
<path d="M220.68,383.064c14.55,0,27.44-7.204,35.317-18.226c7.878,11.021,20.767,18.226,35.317,18.226
	c14.55,0,27.44-7.204,35.317-18.226c7.878,11.021,20.767,18.226,35.317,18.226c4.462,0,8.079-3.617,8.079-8.079
	s-3.617-8.079-8.079-8.079c-15.02,0-27.238-12.219-27.238-27.238s12.219-27.238,27.238-27.238c4.462,0,8.079-3.617,8.079-8.079
	s-3.617-8.079-8.079-8.079c-14.55,0-27.44,7.204-35.317,18.226c-7.878-11.021-20.767-18.226-35.317-18.226
	c-14.55,0-27.44,7.204-35.317,18.226c-7.878-11.021-20.768-18.226-35.317-18.226c-14.55,0-27.44,7.204-35.317,18.226
	c-7.878-11.021-20.768-18.226-35.317-18.226c-4.462,0-8.079,3.617-8.079,8.079s3.617,8.079,8.079,8.079
	c15.019,0,27.238,12.219,27.238,27.238s-12.219,27.238-27.238,27.238c-4.462,0-8.079,3.617-8.079,8.079s3.617,8.079,8.079,8.079
	c14.55,0,27.44-7.204,35.317-18.226C193.241,375.86,206.132,383.064,220.68,383.064z M291.316,312.43
	c15.02,0,27.238,12.219,27.238,27.238s-12.219,27.238-27.238,27.238s-27.238-12.219-27.238-27.238S276.297,312.43,291.316,312.43z
	 M220.68,312.43c15.019,0,27.238,12.219,27.238,27.238s-12.219,27.238-27.238,27.238c-15.02,0-27.238-12.219-27.238-27.238
	S205.662,312.43,220.68,312.43z"/>
</svg>