<?xml version="1.0" encoding="iso-8859-1"?>
<!-- Uploaded to: SVG Repo, www.svgrepo.com, Generator: SVG Repo Mixer Tools -->
<svg height="800px" width="800px" version="1.1" id="Layer_1" xmlns="http://www.w3.org/2000/svg" xmlns:xlink="http://www.w3.org/1999/xlink" 
	 viewBox="0 0 512 512" xml:space="preserve">
<g transform="translate(1 1)">
	<g>
		<path style="fill:#FFDD09;" d="M148.333,289.133c-34.133,0-58.027-23.893-68.267-66.56l-23.04-115.2
			c-4.267-23.04,0.853-46.933,15.36-64s35.84-27.307,58.88-27.307H165.4c5.12,0,8.533,3.413,8.533,8.533s-3.413,8.533-8.533,8.533
			h-34.133c-17.92,0-34.133,7.68-46.08,21.333c-10.24,12.8-14.507,31.573-11.093,49.493l23.04,115.2
			c5.973,23.893,18.773,52.907,51.2,52.907c5.12,0,8.533,3.413,8.533,8.533S153.453,289.133,148.333,289.133z"/>
		<path style="fill:#FFDD09;" d="M353.133,289.133c-5.12,0-8.533-3.413-8.533-8.533c0-5.12,3.413-8.533,8.533-8.533
			c32.427,0,46.08-29.013,51.2-52.907l23.04-114.347c3.413-18.773-0.853-36.693-11.947-50.347
			C404.333,40.813,388.12,33.133,370.2,33.133h-34.133c-5.12,0-8.533-3.413-8.533-8.533s3.413-8.533,8.533-8.533H370.2
			c23.04,0,44.373,10.24,58.88,27.307c14.507,17.067,19.627,40.96,15.36,64l-23.04,115.2
			C411.16,265.24,387.267,289.133,353.133,289.133z"/>
		<path style="fill:#FFDD09;" d="M378.733,502.467H139.8v-20.48c0-7.68,5.973-13.653,13.653-13.653h210.773
			c7.68,0,13.653,5.973,13.653,13.653v20.48H378.733z"/>
	</g>
	<path style="fill:#FD9808;" d="M365.08,468.333h-25.6c7.68,0,13.653,5.973,13.653,13.653v20.48h25.6v-20.48
		C378.733,474.307,372.76,468.333,365.08,468.333"/>
	<path style="fill:#FFDD09;" d="M353.133,468.333H165.4V439.32c0-7.68,5.973-13.653,13.653-13.653h159.573
		c7.68,0,13.653,5.973,13.653,13.653v29.013H353.133z"/>
	<path style="fill:#FD9808;" d="M339.48,425.667h-25.6c7.68,0,13.653,5.973,13.653,13.653v29.013h25.6V439.32
		C353.133,431.64,347.16,425.667,339.48,425.667"/>
	<polygon style="fill:#FFDD09;" points="191,425.667 327.533,425.667 327.533,391.533 191,391.533 	"/>
	<polygon style="fill:#FD9808;" points="301.933,425.667 327.533,425.667 327.533,391.533 301.933,391.533 	"/>
	<g>
		<path style="fill:#FFFFFF;" d="M153.453,468.333h25.6c-7.68,0-13.653,5.973-13.653,13.653v20.48h-25.6v-20.48
			C139.8,474.307,145.773,468.333,153.453,468.333"/>
		<path style="fill:#FFFFFF;" d="M179.053,425.667h25.6c-7.68,0-13.653,5.973-13.653,13.653v29.013h-25.6V439.32
			C165.4,431.64,171.373,425.667,179.053,425.667"/>
		<polygon style="fill:#FFFFFF;" points="191,425.667 216.6,425.667 216.6,391.533 191,391.533 		"/>
	</g>
	<path style="fill:#FFDD09;" d="M363.373,391.533H155.16c-7.68,0-13.653-7.68-11.947-15.36l46.08-213.333
		c0.853-5.973,5.973-10.24,11.947-10.24h116.053c5.973,0,11.093,4.267,11.947,10.24l46.08,213.333
		C377.027,383.853,371.053,391.533,363.373,391.533"/>
	<path style="fill:#FD9808;" d="M374.467,376.173l-46.08-213.333c-0.853-5.973-5.973-10.24-11.947-10.24H293.4
		c5.973,0,11.093,4.267,11.947,10.24l46.08,213.333c1.707,7.68-4.267,15.36-11.947,15.36h22.187
		C370.2,391.533,376.173,383.853,374.467,376.173"/>
	<path style="fill:#FFDD09;" d="M301.933,152.6H216.6V127c0-4.267,3.413-8.533,8.533-8.533H293.4c4.267,0,8.533,3.413,8.533,8.533
		V152.6z"/>
	<path style="fill:#FD9808;" d="M293.4,118.467h-25.6c4.267,0,8.533,3.413,8.533,8.533v25.6h25.6V127
		C301.933,121.88,298.52,118.467,293.4,118.467"/>
	<path style="fill:#FFDD09;" d="M336.067,41.667h-153.6c-5.12,0-8.533-3.413-8.533-8.533V16.067c0-5.12,3.413-8.533,8.533-8.533
		h153.6c5.12,0,8.533,3.413,8.533,8.533v17.067C344.6,38.253,341.187,41.667,336.067,41.667"/>
	<path style="fill:#FD9808;" d="M336.067,7.533h-25.6c5.12,0,8.533,3.413,8.533,8.533v17.067c0,5.12-3.413,8.533-8.533,8.533h25.6
		c5.12,0,8.533-3.413,8.533-8.533V16.067C344.6,10.947,341.187,7.533,336.067,7.533"/>
	<g>
		<path style="fill:#FFFFFF;" d="M144.92,376.173L191,162.84c0.853-5.973,5.973-10.24,11.947-10.24h22.187
			c-5.973,0-11.093,4.267-11.947,10.24l-46.08,213.333c-1.707,7.68,4.267,15.36,11.947,15.36h-22.187
			C149.187,391.533,143.213,383.853,144.92,376.173"/>
		<path style="fill:#FFFFFF;" d="M225.133,118.467h25.6c-4.267,0-8.533,3.413-8.533,8.533v25.6h-25.6V127
			C216.6,121.88,220.867,118.467,225.133,118.467"/>
		<path style="fill:#FFFFFF;" d="M182.467,7.533h25.6c-5.12,0-8.533,3.413-8.533,8.533v17.067c0,5.12,3.413,8.533,8.533,8.533h-25.6
			c-5.12,0-8.533-3.413-8.533-8.533V16.067C173.933,10.947,178.2,7.533,182.467,7.533"/>
	</g>
	<path style="fill:#FCC309;" d="M284.867,391.533h-51.2v-23.04c0-5.973,5.12-11.093,11.093-11.093h29.013
		c5.973,0,11.093,5.12,11.093,11.093V391.533L284.867,391.533z"/>
	<path style="fill:#FD9808;" d="M287.427,312.173L287.427,312.173c-15.36,15.36-40.96,15.36-56.32,0
		c-13.653-13.653-15.36-34.133-5.12-50.347l33.28-49.493l33.28,49.493C302.787,278.04,301.08,298.52,287.427,312.173"/>
	<path d="M429.933,511H88.6c-5.12,0-8.533-3.413-8.533-8.533c0-5.12,3.413-8.533,8.533-8.533h341.333
		c5.12,0,8.533,3.413,8.533,8.533C438.467,507.587,435.053,511,429.933,511z"/>
	<path d="M387.267,511h-256v-29.013c0-12.8,10.24-22.187,22.187-22.187h210.773c12.8,0,22.187,10.24,22.187,22.187V511H387.267z
		 M148.333,493.933H370.2v-11.947c0-3.413-2.56-5.12-5.12-5.12H153.453c-3.413,0-5.12,2.56-5.12,5.12V493.933z"/>
	<path d="M361.667,476.867h-204.8V439.32c0-12.8,10.24-22.187,22.187-22.187h159.573c12.8,0,22.187,10.24,22.187,22.187v37.547
		H361.667z M173.933,459.8H344.6v-20.48c0-3.413-2.56-5.12-5.12-5.12H179.053c-3.413,0-5.12,2.56-5.12,5.12V459.8z"/>
	<path d="M336.067,434.2h-153.6V383h153.6V434.2z M199.533,417.133H319v-17.067H199.533V417.133z"/>
	<path d="M363.373,400.067H155.16c-6.827,0-12.8-2.56-16.213-7.68c-4.267-5.12-5.973-11.093-4.267-17.92l46.08-213.333
		c1.707-9.387,11.093-17.067,20.48-17.067h116.053c10.24,0,18.773,6.827,20.48,17.067l46.08,213.333c1.707,5.973,0,12.8-4.267,17.92
		C375.32,397.507,369.347,400.067,363.373,400.067z M201.24,161.133c-1.707,0-3.413,1.707-4.267,3.413l-46.08,213.333
		c0,1.707,0,2.56,0.853,3.413c0.853,0.853,1.707,1.707,3.413,1.707h207.36c1.707,0,2.56-0.853,3.413-1.707
		c0.853-0.853,0.853-1.707,0.853-3.413l-46.08-213.333c0-1.707-1.707-3.413-4.267-3.413L201.24,161.133L201.24,161.133z"/>
	<path d="M310.467,161.133h-102.4V127c0-9.387,7.68-17.067,17.067-17.067H293.4c9.387,0,17.067,7.68,17.067,17.067V161.133z
		 M225.133,144.067H293.4V127h-68.267V144.067z"/>
	<path d="M156.867,289.133c-34.133,0-58.027-23.893-68.267-66.56l-23.04-115.2c-4.267-23.04,0.853-46.933,15.36-64
		s35.84-27.307,58.88-27.307h34.133c5.12,0,8.533,3.413,8.533,8.533s-3.413,8.533-8.533,8.533H139.8
		c-17.92,0-34.133,7.68-46.08,21.333c-10.24,12.8-14.507,31.573-11.093,49.493l23.04,115.2c5.973,23.893,18.773,52.907,51.2,52.907
		c5.12,0,8.533,3.413,8.533,8.533S161.987,289.133,156.867,289.133z"/>
	<path d="M336.067,50.2h-153.6c-9.387,0-17.067-7.68-17.067-17.067V16.067C165.4,6.68,173.08-1,182.467-1h153.6
		c9.387,0,17.067,7.68,17.067,17.067v17.067C353.133,42.52,345.453,50.2,336.067,50.2z M336.067,33.133v8.533V33.133L336.067,33.133
		z M182.467,16.067v17.067h153.6V16.067H182.467z"/>
	<path d="M361.667,289.133c-5.12,0-8.533-3.413-8.533-8.533c0-5.12,3.413-8.533,8.533-8.533c32.427,0,46.08-29.013,51.2-52.907
		l23.04-114.347c3.413-18.773-0.853-36.693-11.947-50.347c-11.093-13.653-27.307-21.333-45.227-21.333H344.6
		c-5.12,0-8.533-3.413-8.533-8.533s3.413-8.533,8.533-8.533h34.133c23.04,0,44.373,10.24,58.88,27.307
		c14.507,17.067,19.627,40.96,15.36,64l-23.04,115.2C419.693,265.24,395.8,289.133,361.667,289.133z"/>
	<path d="M259.267,127c-5.12,0-8.533-3.413-8.533-8.533V84.333c0-5.12,3.413-8.533,8.533-8.533c5.12,0,8.533,3.413,8.533,8.533
		v34.133C267.8,123.587,264.387,127,259.267,127z"/>
	<path d="M284.867,92.867h-51.2c-5.12,0-8.533-3.413-8.533-8.533s3.413-8.533,8.533-8.533h51.2c5.12,0,8.533,3.413,8.533,8.533
		S289.987,92.867,284.867,92.867z"/>
	<path d="M293.4,400.067h-68.267v-31.573c0-11.093,8.533-19.627,19.627-19.627h29.013c11.093,0,19.627,8.533,19.627,19.627
		L293.4,400.067L293.4,400.067z M242.2,383h34.133v-14.507c0-1.707-0.853-2.56-2.56-2.56H244.76c-1.707,0-2.56,0.853-2.56,2.56
		L242.2,383L242.2,383z"/>
	<path d="M259.267,365.933c-5.12,0-8.533-3.413-8.533-8.533v-34.133c0-5.12,3.413-8.533,8.533-8.533c5.12,0,8.533,3.413,8.533,8.533
		V357.4C267.8,362.52,264.387,365.933,259.267,365.933z"/>
	<path d="M259.267,332.653c-11.947,0-24.747-5.12-34.133-14.507c-16.213-16.213-18.773-41.813-5.973-60.587l40.107-60.587
		l40.107,60.587c12.8,18.773,10.24,44.373-5.973,60.587C284.013,327.533,272.067,332.653,259.267,332.653z M259.267,227.693
		l-25.6,39.253c-8.533,11.947-6.827,29.013,4.267,39.253c11.947,11.947,32.427,11.947,44.373,0
		c10.24-10.24,11.947-27.307,4.267-39.253L259.267,227.693z"/>
	<path d="M272.92,320.707L272.92,320.707c-7.68,7.68-19.627,7.68-27.307,0c-6.827-6.827-7.68-17.067-2.56-24.747l16.213-23.893
		l16.213,23.893C280.6,303.64,279.747,313.88,272.92,320.707"/>
</g>
</svg>