<?xml version="1.0" ?>
<!-- Uploaded to: SVG Repo, www.svgrepo.com, Generator: SVG Repo Mixer Tools -->
<svg width="800px" height="800px" viewBox="0 0 512 512" enable-background="new 0 0 512 512" id="flat" version="1.1" xml:space="preserve" xmlns="http://www.w3.org/2000/svg" xmlns:xlink="http://www.w3.org/1999/xlink">
<path d="M263.359,8h-14.719C243.869,8,240,11.869,240,16.641V48h32V16.641C272,11.869,268.132,8,263.359,8z" fill="#E65C64"/>
<path d="M281.924,40h-51.847C222.302,40,216,46.302,216,54.076V80h80V54.076C296,46.302,289.698,40,281.924,40z" fill="#747A99"/>
<path d="M352,136H160l10.561-28.164C178.645,86.281,199.252,72,222.273,72h67.454  c23.022,0,43.628,14.281,51.712,35.836L352,136z" fill="#4D5166"/>
<path d="M358.317,128H153.683c-5.783,0-10.917,3.7-12.745,9.186L128,176h256l-12.938-38.814  C369.233,131.7,364.1,128,358.317,128z" fill="#747A99"/>
<rect fill="#747A99" height="296" width="240" x="136" y="184"/>
<path d="M401.403,504H110.597c-3.351,0-5.81-3.149-4.997-6.4l5.425-21.698c0.573-2.293,2.634-3.902,4.997-3.902  h279.957c2.364,0,4.424,1.609,4.997,3.902L406.4,497.6C407.213,500.851,404.754,504,401.403,504z" fill="#4D5166"/>
<path d="M394.849,200H117.151c-2.845,0-5.151-2.306-5.151-5.151v-21.698c0-2.845,2.306-5.151,5.151-5.151h277.698  c2.845,0,5.151,2.306,5.151,5.151v21.698C400,197.694,397.694,200,394.849,200z" fill="#4D5166"/>
<path d="M352,440H160V328c0-53.019,42.981-96,96-96h0c53.019,0,96,42.981,96,96V440z" fill="#E2E2E2"/>
<g>
<path d="M256,352c-4.418,0-8-3.582-8-8v-48c0-4.418,3.582-8,8-8s8,3.582,8,8v48C264,348.418,260.418,352,256,352z" fill="#4D5166"/>
</g>
<polygon fill="#ECA559" points="280,328 232,336 232,440 280,440 "/>
<path d="M277.333,290.667c0,11.782-9.551,21.333-21.333,21.333s-21.333-9.551-21.333-21.333S256,248,256,248  S277.333,278.885,277.333,290.667z" fill="#E6C067"/>
<g>
<path d="M312,296h-8c-4.418,0-8-3.582-8-8s3.582-8,8-8h8c4.418,0,8,3.582,8,8S316.418,296,312,296z" fill="#E65C64"/>
</g>
<g>
<path d="M304,328c-2.047,0-4.095-0.781-5.657-2.343l-8-8c-3.125-3.124-3.125-8.189,0-11.313   c3.124-3.124,8.189-3.124,11.313,0l8,8c3.125,3.124,3.125,8.189,0,11.313C308.095,327.219,306.047,328,304,328z" fill="#E65C64"/>
</g>
<g>
<path d="M208,296h-8c-4.418,0-8-3.582-8-8s3.582-8,8-8h8c4.418,0,8,3.582,8,8S212.418,296,208,296z" fill="#E65C64"/>
</g>
<g>
<path d="M208,328c-2.047,0-4.095-0.781-5.657-2.343c-3.125-3.124-3.125-8.189,0-11.313l8-8   c3.124-3.124,8.189-3.124,11.313,0c3.125,3.124,3.125,8.189,0,11.313l-8,8C212.095,327.219,210.047,328,208,328z" fill="#E65C64"/>
</g>
<path d="M408,40L408,40c17.673,0,32,14.327,32,32v0v0c0-17.673,14.327-32,32-32h0h0c-17.673,0-32-14.327-32-32v0v0  C440,25.673,425.673,40,408,40L408,40z" fill="#E6C067"/>
<path d="M440,160L440,160c17.673,0,32,14.327,32,32v0v0c0-17.673,14.327-32,32-32h0h0c-17.673,0-32-14.327-32-32v0v0  C472,145.673,457.673,160,440,160L440,160z" fill="#E6C067"/>
<path d="M408,296L408,296c17.673,0,32,14.327,32,32v0v0c0-17.673,14.327-32,32-32h0h0c-17.673,0-32-14.327-32-32v0v0  C440,281.673,425.673,296,408,296L408,296z" fill="#E6C067"/>
<path d="M104,40L104,40c-17.673,0-32,14.327-32,32v0v0c0-17.673-14.327-32-32-32h0h0c17.673,0,32-14.327,32-32v0v0  C72,25.673,86.327,40,104,40L104,40z" fill="#E6C067"/>
<path d="M72,160L72,160c-17.673,0-32,14.327-32,32v0v0c0-17.673-14.327-32-32-32h0h0c17.673,0,32-14.327,32-32v0v0  C40,145.673,54.327,160,72,160L72,160z" fill="#E6C067"/>
<path d="M104,296L104,296c-17.673,0-32,14.327-32,32v0v0c0-17.673-14.327-32-32-32h0h0c17.673,0,32-14.327,32-32v0v0  C72,281.673,86.327,296,104,296L104,296z" fill="#E6C067"/>
<g>
<path d="M120,120c-4.418,0-8-3.582-8-8V80c0-4.418,3.582-8,8-8s8,3.582,8,8v32C128,116.418,124.418,120,120,120z" fill="#E65C64"/>
</g>
<g>
<path d="M136,104h-32c-4.418,0-8-3.582-8-8s3.582-8,8-8h32c4.418,0,8,3.582,8,8S140.418,104,136,104z" fill="#E65C64"/>
</g>
<g>
<path d="M64,248c-4.418,0-8-3.582-8-8v-32c0-4.418,3.582-8,8-8s8,3.582,8,8v32C72,244.418,68.418,248,64,248z" fill="#E65C64"/>
</g>
<g>
<path d="M80,232H48c-4.418,0-8-3.582-8-8s3.582-8,8-8h32c4.418,0,8,3.582,8,8S84.418,232,80,232z" fill="#E65C64"/>
</g>
<g>
<path d="M40,400c-4.418,0-8-3.582-8-8v-32c0-4.418,3.582-8,8-8s8,3.582,8,8v32C48,396.418,44.418,400,40,400z" fill="#E65C64"/>
</g>
<g>
<path d="M56,384H24c-4.418,0-8-3.582-8-8s3.582-8,8-8h32c4.418,0,8,3.582,8,8S60.418,384,56,384z" fill="#E65C64"/>
</g>
<g>
<path d="M88,456c-4.418,0-8-3.582-8-8v-32c0-4.418,3.582-8,8-8s8,3.582,8,8v32C96,452.418,92.418,456,88,456z" fill="#E65C64"/>
</g>
<g>
<path d="M104,440H72c-4.418,0-8-3.582-8-8s3.582-8,8-8h32c4.418,0,8,3.582,8,8S108.418,440,104,440z" fill="#E65C64"/>
</g>
<g>
<path d="M448,248c-4.418,0-8-3.582-8-8v-32c0-4.418,3.582-8,8-8s8,3.582,8,8v32C456,244.418,452.418,248,448,248z" fill="#E65C64"/>
</g>
<g>
<path d="M464,232h-32c-4.418,0-8-3.582-8-8s3.582-8,8-8h32c4.418,0,8,3.582,8,8S468.418,232,464,232z" fill="#E65C64"/>
</g>
<g>
<path d="M472,400c-4.418,0-8-3.582-8-8v-32c0-4.418,3.582-8,8-8s8,3.582,8,8v32C480,396.418,476.418,400,472,400z" fill="#E65C64"/>
</g>
<g>
<path d="M488,384h-32c-4.418,0-8-3.582-8-8s3.582-8,8-8h32c4.418,0,8,3.582,8,8S492.418,384,488,384z" fill="#E65C64"/>
</g>
<g>
<path d="M424,456c-4.418,0-8-3.582-8-8v-32c0-4.418,3.582-8,8-8s8,3.582,8,8v32C432,452.418,428.418,456,424,456z" fill="#E65C64"/>
</g>
<g>
<path d="M440,440h-32c-4.418,0-8-3.582-8-8s3.582-8,8-8h32c4.418,0,8,3.582,8,8S444.418,440,440,440z" fill="#E65C64"/>
</g>
<g>
<path d="M168,56c-4.418,0-8-3.582-8-8V16c0-4.418,3.582-8,8-8s8,3.582,8,8v32C176,52.418,172.418,56,168,56z" fill="#E65C64"/>
</g>
<g>
<path d="M184,40h-32c-4.418,0-8-3.582-8-8s3.582-8,8-8h32c4.418,0,8,3.582,8,8S188.418,40,184,40z" fill="#E65C64"/>
</g>
<g>
<path d="M392,120c-4.418,0-8-3.582-8-8V80c0-4.418,3.582-8,8-8s8,3.582,8,8v32C400,116.418,396.418,120,392,120z" fill="#E65C64"/>
</g>
<g>
<path d="M408,104h-32c-4.418,0-8-3.582-8-8s3.582-8,8-8h32c4.418,0,8,3.582,8,8S412.418,104,408,104z" fill="#E65C64"/>
</g>
<g>
<path d="M344,56c-4.418,0-8-3.582-8-8V16c0-4.418,3.582-8,8-8s8,3.582,8,8v32C352,52.418,348.418,56,344,56z" fill="#E65C64"/>
</g>
<g>
<path d="M360,40h-32c-4.418,0-8-3.582-8-8s3.582-8,8-8h32c4.418,0,8,3.582,8,8S364.418,40,360,40z" fill="#E65C64"/>
</g>
</svg>