<svg id="visual" viewBox="0 0 900 600" width="900" height="600" xmlns="http://www.w3.org/2000/svg" xmlns:xlink="http://www.w3.org/1999/xlink" version="1.1"><path d="M0 362L11.5 366.8C23 371.7 46 381.3 69 380.7C92 380 115 369 138.2 369C161.3 369 184.7 380 207.8 388.3C231 396.7 254 402.3 277 400.3C300 398.3 323 388.7 346 380.7C369 372.7 392 366.3 415.2 369.2C438.3 372 461.7 384 484.8 391.5C508 399 531 402 554 397.2C577 392.3 600 379.7 623 373.3C646 367 669 367 692.2 369.5C715.3 372 738.7 377 761.8 378.3C785 379.7 808 377.3 831 381C854 384.7 877 394.3 888.5 399.2L900 404L900 601L888.5 601C877 601 854 601 831 601C808 601 785 601 761.8 601C738.7 601 715.3 601 692.2 601C669 601 646 601 623 601C600 601 577 601 554 601C531 601 508 601 484.8 601C461.7 601 438.3 601 415.2 601C392 601 369 601 346 601C323 601 300 601 277 601C254 601 231 601 207.8 601C184.7 601 161.3 601 138.2 601C115 601 92 601 69 601C46 601 23 601 11.5 601L0 601Z" fill="#3b1018"></path><path d="M0 401L11.5 402.8C23 404.7 46 408.3 69 411.7C92 415 115 418 138.2 415.8C161.3 413.7 184.7 406.3 207.8 407.2C231 408 254 417 277 423.5C300 430 323 434 346 430C369 426 392 414 415.2 414.5C438.3 415 461.7 428 484.8 435.5C508 443 531 445 554 446C577 447 600 447 623 441.7C646 436.3 669 425.7 692.2 426.2C715.3 426.7 738.7 438.3 761.8 440.7C785 443 808 436 831 432.7C854 429.3 877 429.7 888.5 429.8L900 430L900 601L888.5 601C877 601 854 601 831 601C808 601 785 601 761.8 601C738.7 601 715.3 601 692.2 601C669 601 646 601 623 601C600 601 577 601 554 601C531 601 508 601 484.8 601C461.7 601 438.3 601 415.2 601C392 601 369 601 346 601C323 601 300 601 277 601C254 601 231 601 207.8 601C184.7 601 161.3 601 138.2 601C115 601 92 601 69 601C46 601 23 601 11.5 601L0 601Z" fill="#62302a"></path><path d="M0 473L11.5 469C23 465 46 457 69 456.5C92 456 115 463 138.2 461.8C161.3 460.7 184.7 451.3 207.8 452.8C231 454.3 254 466.7 277 470.8C300 475 323 471 346 472.7C369 474.3 392 481.7 415.2 476.8C438.3 472 461.7 455 484.8 454.8C508 454.7 531 471.3 554 472.3C577 473.3 600 458.7 623 452.2C646 445.7 669 447.3 692.2 453.3C715.3 459.3 738.7 469.7 761.8 470.2C785 470.7 808 461.3 831 459.3C854 457.3 877 462.7 888.5 465.3L900 468L900 601L888.5 601C877 601 854 601 831 601C808 601 785 601 761.8 601C738.7 601 715.3 601 692.2 601C669 601 646 601 623 601C600 601 577 601 554 601C531 601 508 601 484.8 601C461.7 601 438.3 601 415.2 601C392 601 369 601 346 601C323 601 300 601 277 601C254 601 231 601 207.8 601C184.7 601 161.3 601 138.2 601C115 601 92 601 69 601C46 601 23 601 11.5 601L0 601Z" fill="#88543d"></path><path d="M0 498L11.5 496.3C23 494.7 46 491.3 69 491.5C92 491.7 115 495.3 138.2 496C161.3 496.7 184.7 494.3 207.8 499.2C231 504 254 516 277 521.7C300 527.3 323 526.7 346 524.8C369 523 392 520 415.2 513.3C438.3 506.7 461.7 496.3 484.8 492.5C508 488.7 531 491.3 554 491C577 490.7 600 487.3 623 492C646 496.7 669 509.3 692.2 516.8C715.3 524.3 738.7 526.7 761.8 526C785 525.3 808 521.7 831 520.3C854 519 877 520 888.5 520.5L900 521L900 601L888.5 601C877 601 854 601 831 601C808 601 785 601 761.8 601C738.7 601 715.3 601 692.2 601C669 601 646 601 623 601C600 601 577 601 554 601C531 601 508 601 484.8 601C461.7 601 438.3 601 415.2 601C392 601 369 601 346 601C323 601 300 601 277 601C254 601 231 601 207.8 601C184.7 601 161.3 601 138.2 601C115 601 92 601 69 601C46 601 23 601 11.5 601L0 601Z" fill="#ab7d51"></path><path d="M0 546L11.5 545.5C23 545 46 544 69 544.3C92 544.7 115 546.3 138.2 550.5C161.3 554.7 184.7 561.3 207.8 560C231 558.7 254 549.3 277 546.8C300 544.3 323 548.7 346 553C369 557.3 392 561.7 415.2 561.2C438.3 560.7 461.7 555.3 484.8 549.5C508 543.7 531 537.3 554 538.5C577 539.7 600 548.3 623 552.2C646 556 669 555 692.2 555.3C715.3 555.7 738.7 557.3 761.8 556.3C785 555.3 808 551.7 831 548.7C854 545.7 877 543.3 888.5 542.2L900 541L900 601L888.5 601C877 601 854 601 831 601C808 601 785 601 761.8 601C738.7 601 715.3 601 692.2 601C669 601 646 601 623 601C600 601 577 601 554 601C531 601 508 601 484.8 601C461.7 601 438.3 601 415.2 601C392 601 369 601 346 601C323 601 300 601 277 601C254 601 231 601 207.8 601C184.7 601 161.3 601 138.2 601C115 601 92 601 69 601C46 601 23 601 11.5 601L0 601Z" fill="#c8a96a"></path></svg>