<svg id="visual" viewBox="0 0 900 600" width="900" height="600" xmlns="http://www.w3.org/2000/svg" xmlns:xlink="http://www.w3.org/1999/xlink" version="1.1"><path d="M0 516L15 517.3C30 518.7 60 521.3 90 520C120 518.7 150 513.3 180 512.5C210 511.7 240 515.3 270 514C300 512.7 330 506.3 360 508.7C390 511 420 522 450 523.3C480 524.7 510 516.3 540 511.7C570 507 600 506 630 511C660 516 690 527 720 530C750 533 780 528 810 526.2C840 524.3 870 525.7 885 526.3L900 527L900 601L885 601C870 601 840 601 810 601C780 601 750 601 720 601C690 601 660 601 630 601C600 601 570 601 540 601C510 601 480 601 450 601C420 601 390 601 360 601C330 601 300 601 270 601C240 601 210 601 180 601C150 601 120 601 90 601C60 601 30 601 15 601L0 601Z" fill="#d4a017"></path><path d="M0 533L15 532.3C30 531.7 60 530.3 90 529.7C120 529 150 529 180 528.5C210 528 240 527 270 529.2C300 531.3 330 536.7 360 540.3C390 544 420 546 450 542.2C480 538.3 510 528.7 540 528.8C570 529 600 539 630 543.2C660 547.3 690 545.7 720 544.7C750 543.7 780 543.3 810 541.7C840 540 870 537 885 535.5L900 534L900 601L885 601C870 601 840 601 810 601C780 601 750 601 720 601C690 601 660 601 630 601C600 601 570 601 540 601C510 601 480 601 450 601C420 601 390 601 360 601C330 601 300 601 270 601C240 601 210 601 180 601C150 601 120 601 90 601C60 601 30 601 15 601L0 601Z" fill="#d2a333"></path><path d="M0 554L15 553.2C30 552.3 60 550.7 90 550.2C120 549.7 150 550.3 180 552.8C210 555.3 240 559.7 270 558C300 556.3 330 548.7 360 545.5C390 542.3 420 543.7 450 542.7C480 541.7 510 538.3 540 537.3C570 536.3 600 537.7 630 540C660 542.3 690 545.7 720 547.2C750 548.7 780 548.3 810 546.8C840 545.3 870 542.7 885 541.3L900 540L900 601L885 601C870 601 840 601 810 601C780 601 750 601 720 601C690 601 660 601 630 601C600 601 570 601 540 601C510 601 480 601 450 601C420 601 390 601 360 601C330 601 300 601 270 601C240 601 210 601 180 601C150 601 120 601 90 601C60 601 30 601 15 601L0 601Z" fill="#cfa547"></path><path d="M0 561L15 563C30 565 60 569 90 570C120 571 150 569 180 566C210 563 240 559 270 560.2C300 561.3 330 567.7 360 570.7C390 573.7 420 573.3 450 571.5C480 569.7 510 566.3 540 564C570 561.7 600 560.3 630 558.5C660 556.7 690 554.3 720 554C750 553.7 780 555.3 810 556C840 556.7 870 556.3 885 556.2L900 556L900 601L885 601C870 601 840 601 810 601C780 601 750 601 720 601C690 601 660 601 630 601C600 601 570 601 540 601C510 601 480 601 450 601C420 601 390 601 360 601C330 601 300 601 270 601C240 601 210 601 180 601C150 601 120 601 90 601C60 601 30 601 15 601L0 601Z" fill="#cca759"></path><path d="M0 575L15 576C30 577 60 579 90 579.2C120 579.3 150 577.7 180 578.3C210 579 240 582 270 582.7C300 583.3 330 581.7 360 580.3C390 579 420 578 450 578.2C480 578.3 510 579.7 540 581.3C570 583 600 585 630 586C660 587 690 587 720 586C750 585 780 583 810 582.2C840 581.3 870 581.7 885 581.8L900 582L900 601L885 601C870 601 840 601 810 601C780 601 750 601 720 601C690 601 660 601 630 601C600 601 570 601 540 601C510 601 480 601 450 601C420 601 390 601 360 601C330 601 300 601 270 601C240 601 210 601 180 601C150 601 120 601 90 601C60 601 30 601 15 601L0 601Z" fill="#c8a96a"></path></svg>