<?xml version="1.0" encoding="iso-8859-1"?>
<!-- Uploaded to: SVG Repo, www.svgrepo.com, Generator: SVG Repo Mixer Tools -->
<svg height="800px" width="800px" version="1.1" id="Layer_1" xmlns="http://www.w3.org/2000/svg" xmlns:xlink="http://www.w3.org/1999/xlink" 
	 viewBox="0 0 512 512" xml:space="preserve">
<g>
	<path style="fill:#634E9B;" d="M241.291,476.346c71.332,0,133.96-37.231,169.535-93.316L241.67,371.566L71.757,383.03
		C107.331,439.115,169.961,476.346,241.291,476.346z"/>
	<path style="fill:#634E9B;" d="M437.56,317.511c4.559-21.515-11.772-41.793-33.766-41.793H78.789
		c-21.993,0-38.324,20.277-33.766,41.793c0.666,3.145,1.414,6.258,2.225,9.347l194.043,11.464l194.043-11.464
		C436.147,323.77,436.894,320.655,437.56,317.511z"/>
</g>
<g>
	<path style="fill:#4C3A7A;" d="M101.196,317.511c-4.559-21.515,11.772-41.793,33.766-41.793H78.789
		c-21.993,0-38.324,20.277-33.766,41.793c19.227,90.745,99.797,158.836,196.269,158.836c9.533,0,18.907-0.675,28.087-1.961
		C185.672,462.658,118.524,399.288,101.196,317.511z"/>
	<path style="fill:#4C3A7A;" d="M328.659,512H153.924c-3.572,0-6.468-2.896-6.468-6.468v-1.752c0-20.264,16.427-36.69,36.69-36.69
		h114.289c20.264,0,36.69,16.427,36.69,36.69v1.752C335.127,509.104,332.231,512,328.659,512z"/>
</g>
<path style="fill:#FFDB6C;" d="M355.099,179.053c0,35.568,13.124,68.067,34.788,92.931c4.338,4.979,12.081,4.979,16.419,0
	c21.664-24.864,34.788-57.363,34.788-92.931s-13.124-68.067-34.788-92.931c-4.338-4.979-12.081-4.979-16.419,0
	C368.223,110.986,355.099,143.485,355.099,179.053z"/>
<g>
	<path style="fill:#FA6657;" d="M367.999,209.877c0,23.359,8.087,44.826,21.609,61.764c4.34,5.436,12.633,5.436,16.975,0
		c13.523-16.937,21.609-38.405,21.609-61.764s-8.087-44.826-21.609-61.764c-4.34-5.436-12.633-5.436-16.975,0
		C376.086,165.051,367.999,186.519,367.999,209.877z"/>
	<path style="fill:#FA6657;" d="M398.186,48.805c-4.749,0-8.598-3.85-8.598-8.598V8.598c0-4.748,3.848-8.598,8.598-8.598
		c4.75,0,8.598,3.85,8.598,8.598v31.609C406.784,44.956,402.934,48.805,398.186,48.805z"/>
	<path style="fill:#FA6657;" d="M359.803,71.383c-2.2,0-4.401-0.839-6.08-2.519l-22.351-22.351c-3.358-3.358-3.358-8.802,0-12.159
		c3.359-3.358,8.802-3.358,12.16,0l22.351,22.351c3.358,3.358,3.358,8.802,0,12.159C364.204,70.544,362.003,71.383,359.803,71.383z"
		/>
	<path style="fill:#FA6657;" d="M436.795,70.027c-2.2,0-4.401-0.839-6.08-2.519c-3.358-3.358-3.358-8.802,0-12.159l22.351-22.351
		c3.359-3.358,8.802-3.358,12.16,0c3.358,3.358,3.358,8.802,0,12.159l-22.351,22.351C441.196,69.188,438.995,70.027,436.795,70.027z
		"/>
</g>
<path style="fill:#FFDB6C;" d="M71.757,383.031h339.07c10.871-17.139,19.216-36.037,24.509-56.173H47.248
	C52.541,346.995,60.885,365.892,71.757,383.031z"/>
<g>
	<path style="fill:#FFB04C;" d="M103.423,326.858H47.248c1.657,8.347,11.091,36.111,24.509,56.173h56.174
		C117.06,365.893,108.716,346.995,103.423,326.858z"/>
	<circle style="fill:#FFB04C;" cx="73.622" cy="301.924" r="9.744"/>
	<circle style="fill:#FFB04C;" cx="120.864" cy="301.924" r="9.744"/>
	<circle style="fill:#FFB04C;" cx="168.107" cy="301.924" r="9.744"/>
	<circle style="fill:#FFB04C;" cx="215.35" cy="301.924" r="9.744"/>
	<circle style="fill:#FFB04C;" cx="262.581" cy="301.924" r="9.744"/>
	<circle style="fill:#FFB04C;" cx="309.824" cy="301.924" r="9.744"/>
	<circle style="fill:#FFB04C;" cx="357.066" cy="301.924" r="9.744"/>
	<circle style="fill:#FFB04C;" cx="404.309" cy="301.924" r="9.744"/>
</g>
</svg>