<?xml version="1.0" encoding="iso-8859-1"?>
<!-- Uploaded to: SVG Repo, www.svgrepo.com, Generator: SVG Repo Mixer Tools -->
<svg height="800px" width="800px" version="1.1" id="Layer_1" xmlns="http://www.w3.org/2000/svg" xmlns:xlink="http://www.w3.org/1999/xlink" 
	 viewBox="0 0 512 512" xml:space="preserve">
<path style="fill:#6E6057;" d="M256,66.783c-9.217,0-16.696-7.473-16.696-16.696V16.696C239.304,7.473,246.783,0,256,0
	s16.696,7.473,16.696,16.696v33.391C272.696,59.31,265.217,66.783,256,66.783z"/>
<path style="fill:#615349;" d="M272.696,50.087V16.696C272.696,7.473,265.217,0,256,0v66.783
	C265.217,66.783,272.696,59.31,272.696,50.087z"/>
<path style="fill:#E6EBF0;" d="M372.87,367.304c41.977-75.869,41.978-191.26,0-267.13H139.13
	c-41.978,75.871-41.977,191.261,0,267.13H372.87z"/>
<path style="fill:#D1DAE4;" d="M256,100.174v267.13h116.87c41.977-75.869,41.978-191.26,0-267.13H256z"/>
<path style="fill:#615349;" d="M389.576,478.614c-6.12,0-12.022-3.386-14.946-9.234c-4.119-8.25-0.782-18.277,7.467-22.402
	l29.87-14.935c17.076-8.538,27.685-25.701,27.685-44.793V150.261c0-27.619-22.468-50.087-50.087-50.087h-33.391
	c-9.217,0-16.696-7.473-16.696-16.696s7.479-16.696,16.696-16.696h33.391c46.032,0,83.478,37.446,83.478,83.478V387.25
	c0,31.821-17.685,60.429-46.141,74.663l-29.87,14.935C394.631,478.043,392.087,478.614,389.576,478.614z"/>
<path style="fill:#6E6057;" d="M122.424,478.614c-2.511,0-5.054-0.571-7.456-1.766l-29.87-14.935
	c-28.456-14.234-46.141-42.842-46.141-74.663V150.261c0-46.032,37.446-83.478,83.478-83.478h33.391
	c9.217,0,16.696,7.473,16.696,16.696s-7.479,16.696-16.696,16.696h-33.391c-27.619,0-50.087,22.468-50.087,50.087V387.25
	c0,19.092,10.608,36.255,27.685,44.793l29.87,14.935c8.25,4.125,11.587,14.152,7.467,22.402
	C134.446,475.228,128.543,478.614,122.424,478.614z"/>
<path style="fill:#95673F;" d="M272.696,389.565h-33.391V283.826c0-9.22,7.475-16.696,16.696-16.696l0,0
	c9.22,0,16.696,7.475,16.696,16.696V389.565z"/>
<path style="fill:#875334;" d="M272.696,389.565V283.826c0-9.22-7.475-16.696-16.696-16.696v122.435H272.696z"/>
<path style="fill:#6E6057;" d="M139.13,367.304v61.217c0,9.223,7.479,16.696,16.696,16.696h200.348
	c9.217,0,16.696-7.473,16.696-16.696v-61.217H139.13z"/>
<path style="fill:#615349;" d="M256,445.217h100.174c9.217,0,16.696-7.473,16.696-16.696v-61.217H256V445.217z"/>
<path style="fill:#95673F;" d="M389.565,512h-267.13c-9.217,0-16.696-7.473-16.696-16.696v-33.391
	c0-27.619,22.468-50.087,50.087-50.087h200.348c27.619,0,50.087,22.468,50.087,50.087v33.391
	C406.261,504.527,398.782,512,389.565,512z"/>
<path style="fill:#875334;" d="M356.174,411.826H256V512h133.565c9.217,0,16.696-7.473,16.696-16.696v-33.391
	C406.261,434.294,383.793,411.826,356.174,411.826z"/>
<path style="fill:#6E6057;" d="M372.87,100.174H139.13c7.791-38.066,43.186-66.783,83.478-66.783h66.783
	C329.683,33.391,365.078,62.108,372.87,100.174z"/>
<path style="fill:#615349;" d="M372.87,100.174H256V33.391h33.391C329.683,33.391,365.078,62.108,372.87,100.174z"/>
<path style="fill:#EEBE43;" d="M256,300.522c-27.619,0-50.087-22.468-50.087-50.087c0-8.593,2.217-17.071,6.402-24.521
	c0.032-0.055,0.066-0.109,0.098-0.162l29.131-50.445c2.979-5.169,8.489-8.348,14.456-8.348l0,0c5.967,0,11.479,3.184,14.456,8.348
	l29.131,50.451c4.283,7.603,6.5,16.081,6.5,24.68C306.087,278.054,283.619,300.522,256,300.522z"/>
<path style="fill:#E4A637;" d="M306.087,250.435c0-8.598-2.217-17.076-6.5-24.68l-29.131-50.451
	c-2.979-5.163-8.489-8.348-14.456-8.348v133.565C283.619,300.522,306.087,278.054,306.087,250.435z"/>
</svg>