<?xml version="1.0" encoding="iso-8859-1"?>
<!-- Uploaded to: SVG Repo, www.svgrepo.com, Generator: SVG Repo Mixer Tools -->
<svg height="800px" width="800px" version="1.1" id="Layer_1" xmlns="http://www.w3.org/2000/svg" xmlns:xlink="http://www.w3.org/1999/xlink" 
	 viewBox="0 0 512 512" xml:space="preserve">
<path style="fill:#E7B636;" d="M239.304,494.868v-77.039c0-8.572,6.282-16.091,14.802-17.028
	c10.072-1.107,18.589,6.745,18.589,16.591v77.913c0,9.846-8.517,17.698-18.589,16.591
	C245.586,510.959,239.304,503.44,239.304,494.868z"/>
<path style="fill:#DE9E2B;" d="M272.696,495.304v-77.913c0-9.223-7.473-16.696-16.696-16.696V512
	C265.223,512,272.696,504.527,272.696,495.304z"/>
<path style="fill:#575771;" d="M322.783,100.174H189.217c-9.22,0-16.696-7.475-16.696-16.696V50.087
	C172.522,22.424,194.946,0,222.609,0h66.783c27.662,0,50.087,22.424,50.087,50.087v33.391
	C339.478,92.699,332.003,100.174,322.783,100.174z"/>
<path style="fill:#494965;" d="M289.391,0H256v100.174h66.783c9.22,0,16.696-7.475,16.696-16.696V50.087
	C339.478,22.424,317.054,0,289.391,0z"/>
<path style="fill:#575771;" d="M289.391,434.087h-66.783c-27.662,0-50.087-22.424-50.087-50.087v-33.391
	c0-9.22,7.475-16.696,16.696-16.696h133.565c9.22,0,16.696,7.475,16.696,16.696V384
	C339.478,411.662,317.054,434.087,289.391,434.087z"/>
<path style="fill:#494965;" d="M322.783,333.913H256v100.174h33.391c27.662,0,50.087-22.424,50.087-50.087v-33.391
	C339.478,341.388,332.003,333.913,322.783,333.913z"/>
<path style="fill:#AF3D25;" d="M250.326,367.304h-59.567c-81.376,0-150.554-66.54-151.786-147.906
	c-0.622-41.08,15.038-79.753,43.938-108.66c28.349-28.348,66.105-43.956,106.306-43.956h60.672c8.572,0,16.091,6.282,17.028,14.802
	c1.106,10.072-6.745,18.589-16.592,18.589c-42.902,0-77.804,34.902-77.804,77.804v78.13c0,42.828,34.781,77.683,77.581,77.804
	c8.399,0.023,15.748,6.217,16.786,14.553C268.154,358.645,260.254,367.304,250.326,367.304z"/>
<path style="fill:#A3331B;" d="M322.783,367.304h-60.672c-8.572,0-16.091-6.282-17.028-14.802
	c-1.106-10.071,6.745-18.589,16.591-18.589c42.903,0,77.805-34.902,77.805-77.804v-78.13c0-42.828-34.781-77.683-77.581-77.804
	c-8.399-0.023-15.748-6.217-16.786-14.553c-1.266-10.18,6.635-18.839,16.563-18.839h59.567c81.376,0,150.554,66.54,151.786,147.906
	c0.622,41.08-15.038,79.753-43.939,108.66C400.739,351.696,362.984,367.304,322.783,367.304z"/>
<path style="fill:#BC4931;" d="M261.674,367.304h-11.347c-61.412,0-111.196-49.784-111.196-111.195v-78.13
	c0-61.412,49.784-111.196,111.195-111.196h11.347c61.412,0,111.196,49.784,111.196,111.195v78.13
	C372.87,317.52,323.085,367.304,261.674,367.304z"/>
<path style="fill:#AF3D25;" d="M261.674,66.783H256v300.522h5.674c61.411,0,111.195-49.784,111.195-111.195v-78.13
	C372.87,116.567,323.085,66.783,261.674,66.783z"/>
<path style="fill:#E7B636;" d="M256.002,267.13c-27.619,0-50.087-22.468-50.087-50.087s22.468-50.087,50.087-50.087
	s50.087,22.468,50.087,50.087S283.622,267.13,256.002,267.13z"/>
<path style="fill:#DE9E2B;" d="M306.087,217.043c0-27.619-22.468-50.087-50.087-50.087V267.13
	C283.619,267.13,306.087,244.663,306.087,217.043z"/>
</svg>